<?xml version="1.0" encoding="utf-8" ?>
<svg xmlns="http://www.w3.org/2000/svg" xmlns:xlink="http://www.w3.org/1999/xlink" width="800" height="800">
	<path fill="#2D261C" d="M398.346 134.486C394.847 126.917 393.58 118.577 393.071 110.31C392.326 98.221 393.597 72.4322 402.036 63.2736C403.861 61.293 406.188 60.0029 408.916 59.9306C415.894 59.746 424.426 67.0562 429.08 71.7599C444.05 86.8902 456.929 113.19 456.734 134.744C474.01 137.833 490.264 149.566 500.906 163.154C508.377 172.694 511.936 181.003 523.69 186.367Q528.705 188.664 534.032 190.099C542.02 192.2 558.893 194.036 564.029 200.912C567.39 205.412 567.065 213.711 566.236 218.966C563.852 234.076 556.618 247.943 544.005 256.993C538.524 260.926 532.028 263.117 525.774 265.482C504.722 273.442 493.323 277.118 470.206 273.386C465.653 282.109 463.294 303.715 462.721 313.858Q463.849 315.205 465.102 316.436Q466.356 317.666 467.723 318.769Q469.091 319.872 470.559 320.836Q472.028 321.8 473.583 322.616C488.991 330.768 503.868 323.09 519.498 326.52C526.194 327.989 531.153 331.116 534.823 336.947C551.147 332.249 566.615 327.045 583.392 323.653C632.734 313.679 700.576 314.091 747.531 333.022C752.273 334.934 758.018 337.624 760.022 342.683C764.072 352.9 753.924 375.257 749.623 385.105C742.01 402.535 732.172 418.977 721.503 434.683Q712.188 448.63 701.622 461.654Q691.055 474.677 679.327 486.666C639.352 527.608 586.803 560.591 535.151 584.775C517.621 592.982 499.671 599.454 481.685 606.503C471.944 626.62 458.181 655.987 442.181 671.673C438.747 675.039 434.647 677.942 430.527 680.402C422.269 685.331 413.197 688.982 404.363 692.72Q373.252 705.984 340.876 715.765C334.296 717.74 327.531 720.01 320.711 720.963C317.836 721.364 314.897 721.482 312.071 720.698C309.784 720.064 307.575 718.758 306.424 716.612C305.043 714.038 304.517 711.332 305.791 708.619C308.66 702.513 314.787 696.873 319.236 691.789C331.525 677.752 345.307 662.059 352.539 644.618C353.778 641.628 354.524 638.484 355.413 635.378C332.896 657.097 309.346 677.134 281.917 692.416C276.32 695.534 270.198 699.164 263.978 700.765C260.622 701.628 256.605 701.724 253.586 699.773C251.728 698.572 250.59 696.726 250.171 694.571C249.657 691.93 250.093 689.126 251.124 686.666C252.952 682.307 255.901 678.335 258.465 674.386Q262.772 667.666 266.948 660.864C270.556 654.988 273.533 648.555 277.515 642.952C274.037 640.913 271.228 638.003 268.392 635.178C264.338 645.752 259.317 655.408 252.655 664.568C238.073 684.618 217.589 698.763 194.113 706.452C189.145 708.079 184.049 709.679 178.873 710.46C175.96 710.899 171.929 711.253 169.494 709.271C168.277 708.28 167.735 706.776 167.693 705.239C167.541 699.804 176.319 692.168 179.847 688.314Q174.979 690.295 169.993 691.959Q165.007 693.623 159.925 694.962Q154.842 696.302 149.684 697.311Q144.526 698.32 139.313 698.995C125.859 700.72 85.0246 702.334 74.5783 693.837C73.1265 692.656 72.1865 691.225 72.0401 689.331C71.9046 687.576 72.3825 685.626 73.495 684.24C76.6802 680.27 81.5777 677.134 85.4583 673.843C88.9222 670.905 92.1359 667.584 95.3382 664.366C104.85 654.808 112.181 643.308 121.201 633.315C124.02 630.192 127.064 627.145 130.269 624.417C133.293 621.843 136.619 619.456 139.266 616.485L139.626 616.075C133.489 616.038 126.723 617.549 120.72 616.79C118.68 616.532 116.988 615.899 115.781 614.168C114.709 612.63 114.533 610.823 114.926 609.023C116.908 599.948 136.266 585.066 144.014 579.873C165.187 565.68 191.521 561.665 216.411 565.794C223.659 566.996 230.606 569.253 237.795 570.645Q237.302 567.986 237.093 565.29Q236.885 562.593 236.964 559.89Q237.043 557.187 237.408 554.507Q237.774 551.828 238.421 549.202C227.428 549.356 216.53 547.854 205.489 548.422C195.225 548.951 184.995 550.041 174.755 550.905C169.729 551.329 164.506 552.051 159.469 551.842C156.262 551.709 153.107 551.119 150.909 548.573C149.355 546.773 148.659 544.469 148.893 542.106Q148.957 541.438 149.111 540.786Q149.266 540.133 149.507 539.507Q149.749 538.881 150.073 538.294Q150.397 537.707 150.798 537.169C153.422 533.609 156.873 530.525 160.018 527.43C166.527 521.026 173.141 514.857 179.923 508.747C188.842 500.713 197.473 492.472 206.679 484.752C197.751 486.166 188.884 486.403 179.885 485.65C138.566 482.189 97.1809 461.17 70.4772 429.426Q69.4818 428.25 68.5158 427.049Q67.5498 425.848 66.6137 424.624Q65.6776 423.4 64.7719 422.153Q63.8663 420.906 62.9917 419.638Q62.1171 418.369 61.2741 417.079Q60.4311 415.789 59.6202 414.479Q58.8093 413.168 58.0309 411.838Q57.2526 410.508 56.5073 409.159Q55.762 407.811 55.0502 406.444Q54.3384 405.077 53.6606 403.693Q52.9828 402.309 52.3393 400.909Q51.6958 399.509 51.0871 398.093Q50.4783 396.677 49.9047 395.247Q49.3311 393.817 48.7929 392.373Q48.2547 390.929 47.7524 389.472Q47.25 388.015 46.7838 386.546Q46.3175 385.078 45.8876 383.598Q45.4577 382.118 45.0645 380.628Q44.6713 379.138 44.3149 377.639Q43.9586 376.139 43.6393 374.632Q43.3201 373.124 43.0381 371.609Q42.7562 370.094 42.5117 368.573Q42.2672 367.051 42.0603 365.524Q41.8534 363.997 41.6843 362.465Q41.5152 360.934 41.3839 359.398Q41.2526 357.863 41.1593 356.325Q41.0659 354.786 41.0106 353.246Q40.9552 351.706 40.9378 350.166Q40.9205 348.625 40.9412 347.084Q40.9618 345.543 41.0205 344.003Q41.0792 342.463 41.1759 340.925Q41.2725 339.387 41.4071 337.852C42.8565 321.866 47.7716 307.781 56.4931 294.351C59.3667 289.926 62.5423 285.509 66.6571 282.145C68.4984 280.64 71.403 278.578 73.9269 279.091C77.0764 279.73 77.1898 283.803 77.0019 286.297C76.6096 291.502 75.7932 296.667 75.5068 301.887C74.4024 322.016 78.2694 340.442 88.7621 357.795Q89.9173 359.676 91.1556 361.503Q92.3939 363.329 93.7128 365.099Q95.0317 366.869 96.4285 368.577Q97.8254 370.286 99.2974 371.931Q100.769 373.575 102.314 375.152Q103.858 376.729 105.471 378.235Q107.085 379.741 108.764 381.173Q110.443 382.605 112.185 383.961Q113.926 385.316 115.727 386.593Q117.528 387.869 119.384 389.063Q121.24 390.257 123.147 391.367Q125.055 392.477 127.011 393.5Q128.966 394.524 130.965 395.458Q132.965 396.393 135.004 397.237Q137.043 398.081 139.118 398.833Q141.193 399.585 143.3 400.243C150.296 402.393 157.462 403.229 164.518 404.986C169.975 405.068 175.806 405.51 181.235 404.922C188.656 403.966 200.356 401.37 206.83 397.526C209.091 383.206 215.801 368.499 222.887 355.992C238.33 328.735 262.811 307.648 290.58 293.564C315.517 280.916 344.267 275.017 364.358 254.242C367.143 251.362 370.173 248.075 372.233 244.623C374.347 241.08 369.073 231.025 367.996 226.89C364.52 213.543 364.416 196.083 371.506 183.844C355.637 181.364 340.263 174.745 328.337 163.858C323.694 159.619 319.254 155.088 315.557 149.989C304.32 134.489 298.024 113.624 297.228 94.6212C297.015 89.5309 296.755 82.4909 300.599 78.5821C302.596 76.5509 305.371 75.8826 308.149 75.8927C314.125 75.9144 320.36 77.9898 325.95 79.9379C346.757 87.189 367.693 99.036 383.16 114.878C385.876 117.66 388.469 120.678 390.667 123.887C393.032 127.339 395.069 131.182 398.025 134.17C398.13 134.277 398.239 134.381 398.346 134.486Z"/>
	<path d="M164.518 404.986C169.975 405.068 175.806 405.51 181.235 404.922C182.074 405.011 182.763 404.903 183.399 405.486C183.277 405.567 183.162 405.661 183.032 405.728C179.936 407.334 168.078 407.089 164.82 405.836L164.518 404.986Z"/>
	<path fill="#D39654" d="M309.794 87.781C336.801 91.2149 368.471 112.383 385.088 133.725Q389.081 138.857 392.474 144.404C395.299 148.987 401.119 161.055 404.686 163.936L405.469 163.972C406.982 160.305 405.613 153.32 405.313 149.324C425.55 142.198 448.939 141.52 468.614 151.02C498.778 165.586 495.282 193.979 532.841 201.439C529.575 203.079 526.553 204.887 525.307 208.573C524.389 211.288 524.843 214.172 526.121 216.69C528.909 222.186 535.86 227.115 541.722 228.793C545.028 229.739 548.118 229.71 551.489 229.202C546.87 239.109 539.707 247.698 529.231 251.572C519.147 255.301 506.078 252.999 496.565 248.588C488.152 244.687 483.001 238.727 477.761 231.283C479.782 230.138 481.893 229.062 483.769 227.687C480.436 225.953 477.391 224.471 473.557 225.603C469.64 226.759 464.566 230.287 462.68 233.919C462.002 235.223 461.895 236.274 462.145 237.698C464.565 238.066 467.696 238.29 469.94 239.25C473.08 240.594 476.011 246.219 478.441 248.854Q481.291 251.947 484.783 254.29C491.001 258.49 497.652 260.09 504.603 262.56C482.418 265.023 459.157 264.885 437.262 260.077C443.823 265.396 451.322 268.291 459.046 271.483C458.649 272.753 458.339 274.222 457.686 275.378C450.656 296.207 452.966 318.953 447.511 340.2C440.518 337.164 434.806 333.516 429.439 328.081C422.147 320.895 417.297 311.783 413.106 302.532C414.6 319.14 414.199 330.231 428.43 341.974C435.556 347.854 444.793 351.283 453.902 352.428C466.122 353.965 482.57 349.516 491.281 360.655C493.709 363.76 495.143 367.175 495.561 371.096C495.747 372.833 495.857 374.632 495.424 376.335L494.897 376.915C493.734 376.16 493.071 374.68 492.226 373.575C489.559 370.087 485.768 368.091 481.775 366.536C486.335 370.559 489.042 374.964 489.368 381.175C489.503 383.743 488.858 386.583 487.036 388.492C486.176 389.392 485.108 390.148 484.12 390.9C483.661 387.192 483.319 383.79 481.71 380.366C480.579 379.519 479.887 378.718 478.463 378.571C477.559 379.862 478.094 384.279 476.82 387.028C476.396 388.042 476.039 389.248 474.925 389.682C472.671 390.56 470.292 389.58 468.303 388.481C467.641 388.115 467.022 387.725 466.421 387.268C461.33 384.814 458.48 379.066 452.694 377.408C447.993 376.061 442.449 376.522 437.579 376.246C418.238 375.151 400.382 371.387 386.446 356.933C377.659 346.539 374.097 337.798 370.292 324.891C366.368 331.718 366.299 339.26 368.347 346.74C371.23 357.266 378.471 364.484 386.208 371.725L387.668 372.754C385.353 377.823 373.84 382.675 372.765 386.359C368.801 381.574 364.299 377.454 359.606 373.404C345.257 362.587 326.79 354.789 308.501 357.249C298.32 358.618 287.324 364.031 280.18 371.446C301.962 363.964 319.203 363.437 340.27 373.806C354.327 380.725 366.687 392.471 371.763 407.567C378.028 426.201 373.408 446.207 364.804 463.306C359.051 474.739 351.555 485.311 343.372 495.122C340.298 498.807 336.315 502.218 333.707 506.173C332.842 507.485 332.001 509.172 332.49 510.781C332.801 511.806 333.547 512.427 334.521 512.782C347.746 517.599 405.599 483.195 441.518 501.622C448.488 505.197 454.565 510.973 458.18 517.96C458.9 519.352 459.395 520.872 459.902 522.351C459.82 522.264 459.736 522.178 459.655 522.089C457.911 520.174 456.995 517.732 455.289 515.827C449.896 509.801 441.686 507.697 433.93 507.202C430.87 507.007 427.842 507.049 424.783 507.224C433.169 512.389 449.513 518.495 452.131 529.261C452.543 530.955 452.262 532.686 451.306 534.146C449.571 536.796 446.312 538.436 443.455 539.595L443.075 539.285C440.505 537.147 438.344 534.616 435.865 532.387C429.716 526.859 421.748 524.395 413.77 522.822C418.53 526.592 423.658 529.583 427.604 534.289C429.785 536.58 431.309 538.917 432.651 541.773C424.874 542.738 416.683 541.363 408.916 540.641Q400.367 539.904 391.796 539.486Q366.084 538.378 340.391 539.859C331.719 540.307 322.879 541.462 314.204 541.36C311.225 541.326 307.722 541.208 305.078 539.709C293.115 532.922 309.331 502.009 306.232 491.49C302.545 478.972 284.753 477.567 274.363 475.056C268.414 473.618 262.423 471.719 256.804 469.305C247.156 465.16 239.304 458.763 230.227 453.713C233.226 457.828 235.603 461.848 237.802 466.434C204.407 476.663 177.756 476.959 144.451 465.645C110.33 454.053 80.2297 430.397 64.1441 397.849C62.2067 393.665 60.4999 389.269 58.968 384.92C53.0295 368.063 50.7886 347.508 54.52 329.991C56.2742 321.755 59.3661 313.988 62.9631 306.407Q62.8541 311.011 63.1432 315.607Q63.4324 320.203 64.1175 324.756Q64.8027 329.31 65.8787 333.788Q66.9547 338.265 68.4136 342.633C77.6725 370.409 98.8116 392.872 124.89 405.693C142.89 414.542 165.146 418.892 185.15 416.361C193.295 415.331 201.245 413.078 209.001 410.45C211.077 416.298 213.402 421.522 216.778 426.747C216.948 415.773 217.123 404.763 219.609 394.017C229.066 353.144 261.677 321.078 298.329 302.998C323.636 290.514 366.997 278.056 381.071 252.012C382.488 248.369 383.791 244.852 383.737 240.871C383.675 236.244 381.62 231.613 380.302 227.217C375.636 211.661 376.368 199.601 382.413 184.636C384.996 184.275 387.063 183.806 389.281 182.378C389.861 181.234 390.425 180.382 390.206 179.051C387.34 175.158 375.463 173.47 370.671 172.179C343.271 164.798 323.719 148.67 314.605 121.263C311.194 111.008 308.574 98.5499 309.794 87.781Z"/>
	<path fill="#BE7532" d="M64.1441 397.849C65.2451 397.586 65.5873 397.335 66.5989 397.979C69.0173 399.518 70.9825 403.569 72.9424 405.742C77.177 410.438 81.7061 415.028 86.3277 419.348C110.667 442.096 149.963 459.035 183.638 455.979C200.464 454.452 214.131 447.731 228.659 439.756C240.356 451.984 264.806 459.397 281.212 461.62C290.027 462.815 299.319 461.399 306.998 466.882C312.724 470.971 314.016 478.498 313.882 485.092C313.69 494.547 306.416 522.871 312.411 529.338C315.191 532.337 320.805 532.377 324.619 532.349C344.517 532.202 364.108 529.874 384.073 530.851C393.412 531.308 402.906 531.896 412.211 532.834C414.884 533.104 425.741 535.06 427.604 534.289C429.785 536.58 431.309 538.917 432.651 541.773C424.874 542.738 416.683 541.363 408.916 540.641Q400.367 539.904 391.796 539.486Q366.084 538.378 340.391 539.859C331.719 540.307 322.879 541.462 314.204 541.36C311.225 541.326 307.722 541.208 305.078 539.709C293.115 532.922 309.331 502.009 306.232 491.49C302.545 478.972 284.753 477.567 274.363 475.056C268.414 473.618 262.423 471.719 256.804 469.305C247.156 465.16 239.304 458.763 230.227 453.713C233.226 457.828 235.603 461.848 237.802 466.434C204.407 476.663 177.756 476.959 144.451 465.645C110.33 454.053 80.2297 430.397 64.1441 397.849Z"/>
	<path fill="#FDB545" d="M429.439 328.081C433.555 318.778 436.74 308.954 440.172 299.383C441.607 295.382 442.887 291.164 444.731 287.334C446.55 283.557 449.21 279.114 452.481 276.422C453.592 275.507 455.534 274.323 457.008 274.497L457.686 275.378C450.656 296.207 452.966 318.953 447.511 340.2C440.518 337.164 434.806 333.516 429.439 328.081Z"/>
	<path fill="#BE7532" d="M389.281 182.378C389.258 182.507 389.236 182.637 389.212 182.766C388.37 187.175 386.325 191.291 385.37 195.685C382.179 210.372 383.841 226.577 392.22 239.28C393.426 241.108 394.882 243.094 396.629 244.425C399.207 246.388 403.14 247.219 404.717 250.232C404.437 251.09 404.687 250.89 403.988 251.253C399.922 253.362 386.296 251.929 381.071 252.012C382.488 248.369 383.791 244.852 383.737 240.871C383.675 236.244 381.62 231.613 380.302 227.217C375.636 211.661 376.368 199.601 382.413 184.636C384.996 184.275 387.063 183.806 389.281 182.378Z"/>
	<path fill="#BE7532" d="M386.446 356.933C387.2 356.814 388.112 356.635 388.857 356.859C391.272 357.587 394.037 359.587 396.295 360.789Q401.408 363.476 406.853 365.404C411.24 366.919 415.873 367.56 420.454 368.174C436.437 370.315 448.487 369.854 462.099 379.74C465.404 382.14 468.323 385.759 472.09 387.359C473.729 387.396 475.205 387.32 476.82 387.028C476.396 388.042 476.039 389.248 474.925 389.682C472.671 390.56 470.292 389.58 468.303 388.481C467.641 388.115 467.022 387.725 466.421 387.268C461.33 384.814 458.48 379.066 452.694 377.408C447.993 376.061 442.449 376.522 437.579 376.246C418.238 375.151 400.382 371.387 386.446 356.933Z"/>
	<path fill="#BE7532" d="M386.208 371.725L387.668 372.754C385.353 377.823 373.84 382.675 372.765 386.359C368.801 381.574 364.299 377.454 359.606 373.404C361.723 373.003 363.86 372.579 366.014 372.456C369.639 372.248 384.035 372.519 386.208 371.725Z"/>
	<path fill="#2D261C" d="M327.486 103.129Q331.449 104.226 335.221 105.864Q338.992 107.502 342.499 109.649C358.462 118.045 370.7 132.435 379.92 147.612C382.777 152.313 385.665 157.331 387.343 162.589C387.932 164.438 388.249 165.954 387.527 167.789C386.622 168.645 385.969 169.027 384.686 168.978C382.152 168.882 380.057 167.808 377.903 166.605C376.02 166.454 374.726 166.027 373.108 165.048C369.208 162.691 366.795 159.254 364.132 155.652C357.455 146.618 352.459 136.552 346.29 127.205C343.889 123.566 332.414 108.294 331.949 106.339C330.457 105.279 328.934 104.247 327.486 103.129Z"/>
	<path fill="#BE7532" d="M327.486 103.129Q331.449 104.226 335.221 105.864Q338.992 107.502 342.499 109.649C342.371 109.709 342.247 109.776 342.116 109.829C341.544 110.061 341.127 110.061 340.522 110.062C340.723 110.571 340.926 110.996 341.19 111.483L340.932 111.935C352.776 123.623 362.323 132.689 369.825 148.119C372.728 154.088 374.353 161.018 377.903 166.605C376.02 166.454 374.726 166.027 373.108 165.048C369.208 162.691 366.795 159.254 364.132 155.652C357.455 146.618 352.459 136.552 346.29 127.205C343.889 123.566 332.414 108.294 331.949 106.339C330.457 105.279 328.934 104.247 327.486 103.129Z"/>
	<path d="M327.486 103.129Q331.449 104.226 335.221 105.864Q338.992 107.502 342.499 109.649C342.371 109.709 342.247 109.776 342.116 109.829C341.544 110.061 341.127 110.061 340.522 110.062C340.723 110.571 340.926 110.996 341.19 111.483L340.932 111.935C338.061 109.837 335.228 107.755 331.949 106.339C330.457 105.279 328.934 104.247 327.486 103.129Z"/>
	<path fill="#2D261C" d="M454.487 177.385C455.536 177.355 456.578 177.491 457.548 177.9C460.569 179.175 462.61 181.535 463.769 184.57C465.448 188.964 465.377 194.385 463.327 198.644C461.739 201.946 459.605 203.789 456.181 204.984C454.642 204.94 453.137 204.675 451.786 203.894C448.793 202.162 446.967 199.008 446.126 195.737C445.024 191.455 445.24 186.28 447.546 182.418C449.258 179.551 451.324 178.235 454.487 177.385Z"/>
	<path fill="#DE4024" d="M505.174 360.63C517.724 355.633 530.186 350.803 542.988 346.472C548.729 344.529 554.59 342.973 560.341 341.062C567.883 388.924 588.633 438.944 622.223 474.499C630.595 483.145 639.054 490.73 648.564 498.083C638.704 507.531 627.107 515.673 616.035 523.635C559.811 564.065 496.617 591.746 430.08 610.173C414.585 614.464 398.832 617.893 383.132 621.35C376.831 622.737 370.377 623.599 364.176 625.392C369.977 618.034 384.315 601.605 383.342 592.369C383.222 591.224 382.915 590.036 382.438 588.989C381.608 588.043 380.768 587.258 379.728 586.541C376.168 584.085 371.572 583.646 367.362 583.984C360.133 584.564 352.794 587.425 345.854 589.419C331.505 593.542 317.128 598.129 302.494 601.114C302.24 600.853 301.981 600.596 301.741 600.322C286.764 583.23 275.377 550.748 276.974 528.106C280.235 522.786 286.475 518.881 291.433 515.226C289.175 521.261 288.552 528.317 289.491 534.688C290.215 539.6 292.339 544.811 296.506 547.758C300.567 550.631 305.55 551.698 310.433 552.015C320.609 552.676 331.041 551.731 341.208 551.122C352.362 550.454 363.661 549.983 374.832 549.97C384.239 549.959 393.803 550.603 403.179 551.361C415.626 552.368 429.573 554.326 441.866 551.904C451.406 550.025 461.062 545.805 466.566 537.412C470.103 532.021 471.52 525.318 470.136 518.996C467.897 508.762 459.179 499.144 450.539 493.657C431.09 481.306 408.982 484.668 387.817 489.334C376.866 492.106 366.078 495.316 355.255 498.541C367.204 485.051 377.656 468.204 382.923 450.903C384.494 445.74 385.436 440.387 386.387 435.082C390.787 431.125 395.528 427.566 399.95 423.631C412.407 412.673 425.491 403.168 439.891 394.915C443.451 392.875 447.086 390.632 450.838 388.974C450.959 389.046 451.081 389.116 451.2 389.191C454.059 390.991 456.219 393.745 458.734 395.978C465.203 401.725 474.391 402.993 482.633 401.273C491.106 399.506 499.066 394.241 503.752 386.912Q504.111 386.356 504.441 385.782Q504.771 385.208 505.072 384.619Q505.372 384.029 505.643 383.425Q505.913 382.82 506.152 382.203Q506.391 381.586 506.598 380.957Q506.805 380.328 506.98 379.69Q507.155 379.052 507.297 378.405Q507.439 377.759 507.548 377.106Q507.657 376.453 507.733 375.795Q507.809 375.138 507.851 374.477Q507.893 373.816 507.901 373.155Q507.909 372.493 507.884 371.831Q507.859 371.17 507.8 370.51Q507.741 369.851 507.648 369.196Q507.555 368.54 507.43 367.89Q507.304 367.241 507.145 366.598C506.664 364.573 505.908 362.576 505.174 360.63Z"/>
	<path fill="#C42F1D" d="M622.223 474.499C630.595 483.145 639.054 490.73 648.564 498.083C638.704 507.531 627.107 515.673 616.035 523.635C559.811 564.065 496.617 591.746 430.08 610.173C414.585 614.464 398.832 617.893 383.132 621.35C376.831 622.737 370.377 623.599 364.176 625.392C369.977 618.034 384.315 601.605 383.342 592.369C383.222 591.224 382.915 590.036 382.438 588.989C387.614 584.799 406.543 579.937 413.791 577.466Q425.68 573.389 437.459 569.005Q466.507 558.236 495.057 546.212C516.412 537.067 537.723 527.252 558.027 515.929C571.574 508.374 584.629 499.914 597.656 491.509C603.065 488.019 619.51 479.25 622.223 474.499Z"/>
	<path fill="#C42F1D" d="M386.387 435.082C390.787 431.125 395.528 427.566 399.95 423.631C400.002 423.773 400.051 423.916 400.107 424.057C400.368 424.711 400.255 424.469 400.726 425.095C399.851 433.553 398.027 441.494 395.928 449.701C394.147 456.66 383.908 483.862 387.163 489.152L387.817 489.334C376.866 492.106 366.078 495.316 355.255 498.541C367.204 485.051 377.656 468.204 382.923 450.903C384.494 445.74 385.436 440.387 386.387 435.082Z"/>
	<path fill="#EAE5CD" d="M572.882 338.18C581.083 335.562 590.414 334.587 598.931 333.343C646.423 326.404 699.012 328.189 744.248 345.397L748.995 347.488C738.784 391.913 708.504 435.263 678.695 468.832C672.795 475.477 664.967 485.028 657.763 490.147C648.078 482.221 638.443 474.083 630.173 464.642C604.772 437.554 587.922 403.078 578.551 367.371C576.029 357.759 573.865 348.081 572.882 338.18Z"/>
	<path fill="#CECBB4" d="M744.248 345.397L748.995 347.488C738.784 391.913 708.504 435.263 678.695 468.832C672.795 475.477 664.967 485.028 657.763 490.147C648.078 482.221 638.443 474.083 630.173 464.642C640.148 459.798 648.723 453.035 657.593 446.444C689.268 422.906 718.869 393.979 737.811 359.014C740.202 354.601 742.163 349.959 744.248 345.397Z"/>
	<path fill="#FA7022" d="M130.16 606.608C133.736 603.66 136.968 600.322 140.455 597.274C146.51 591.984 153.564 587.444 160.795 583.969C186.29 571.717 214.942 574.983 240.786 584.084C241.856 587.755 242.973 591.365 244.294 594.956C246.668 601.189 249.412 607.109 252.449 613.043Q256.466 619.158 260.386 625.336C257.958 631.066 255.622 636.889 252.857 642.465C238.596 671.228 217.803 685.792 188.033 695.89C191.632 691.05 195.715 684.487 196.948 678.503C197.356 676.521 197.398 674.303 196.16 672.592C195.58 671.791 194.084 670.554 193.037 670.59C187.921 670.764 180.39 676.057 175.559 678.15C172.102 679.648 168.518 680.844 164.925 681.969C147.332 687.478 126.813 690.07 108.414 689.184C101.753 688.863 95.1507 687.899 88.5642 686.895C92.3696 683.101 96.4697 679.608 100.306 675.847C104.726 671.512 108.897 666.767 112.986 662.119C118.527 655.82 122.928 648.656 128.358 642.296C135.195 634.288 143.587 628.093 151.894 621.737C154.453 619.779 159.027 616.696 159.429 613.271C159.571 612.057 159.292 610.952 158.453 610.036C154.77 606.017 135.812 606.761 130.16 606.608Z"/>
	<path fill="#FDB545" d="M169.494 603.833C170.552 602.546 171.66 601.327 172.996 600.32C176.743 597.494 181.517 595.945 185.911 594.421C209.051 586.394 221.529 592.324 244.294 594.956C246.668 601.189 249.412 607.109 252.449 613.043C251.267 615.148 250.519 617.708 249.634 619.958Q249.264 620.899 248.871 621.831Q248.478 622.763 248.062 623.685Q247.646 624.607 247.207 625.518Q246.768 626.429 246.307 627.33Q245.846 628.23 245.362 629.118Q244.879 630.007 244.374 630.883Q243.869 631.759 243.342 632.623Q242.815 633.486 242.267 634.336Q241.72 635.186 241.151 636.023Q240.582 636.859 239.993 637.681Q239.403 638.503 238.794 639.31Q238.184 640.117 237.555 640.909Q236.926 641.701 236.277 642.477Q235.629 643.253 234.961 644.013Q234.293 644.773 233.607 645.516Q232.921 646.259 232.216 646.984Q231.512 647.71 230.79 648.418Q230.067 649.126 229.328 649.816Q228.588 650.506 227.832 651.178Q227.076 651.849 226.303 652.502Q225.53 653.155 224.742 653.788Q223.953 654.421 223.149 655.035Q222.345 655.648 221.526 656.242Q220.707 656.835 219.873 657.408Q219.04 657.981 218.192 658.533Q217.345 659.086 216.484 659.617Q215.624 660.148 214.75 660.657Q213.876 661.167 212.99 661.655Q212.104 662.142 211.206 662.608Q210.309 663.074 209.399 663.517Q208.49 663.961 207.571 664.381Q206.651 664.802 205.721 665.2C208.231 659.232 211.188 648.422 212.623 641.972C194.845 654.711 176.521 658.16 155.44 661.089C149.101 661.97 142.667 663.116 136.265 663.285C140.334 656.335 145.494 650.453 150.644 644.329C154.484 639.761 158.221 634.878 162.478 630.691C172.462 620.872 184.975 615.476 197.27 609.307C188.835 604.996 178.426 606.586 169.494 603.833Z"/>
	<defs>
		<linearGradient id="gradient_0" gradientUnits="userSpaceOnUse" x1="379.78516" y1="631.84399" x2="403.3761" y2="679.6814">
			<stop offset="0" stop-color="#B8271B"/>
			<stop offset="1" stop-color="#E34626"/>
		</linearGradient>
	</defs>
	<path fill="url(#gradient_0)" d="M464.641 611.338L465.095 611.39C465.525 615.512 449.406 641.128 446.544 645.541C442.226 652.202 436.281 662.231 430.001 666.951C425.816 670.097 420.566 672.356 415.864 674.634Q400.643 681.828 384.987 688.021Q369.332 694.213 353.308 699.378C343.206 702.741 332.884 706.265 322.468 708.478L321.983 708.216C322.479 705.684 337.819 689.102 340.641 685.554C350.741 672.854 359.355 659.939 366.437 645.315C367.704 642.701 368.391 639.879 369.617 637.309C370.53 635.395 372.317 635.244 374.243 634.668C382.764 632.117 391.845 630.569 400.52 628.513C422.089 623.4 443.577 618.307 464.641 611.338Z"/>
	<defs>
		<linearGradient id="gradient_1" gradientUnits="userSpaceOnUse" x1="274.76682" y1="535.76416" x2="186.52818" y2="495.27768">
			<stop offset="0" stop-color="#BE2B1C"/>
			<stop offset="1" stop-color="#E84928"/>
		</linearGradient>
	</defs>
	<path fill="url(#gradient_1)" d="M243.983 476.132C246.299 475.871 257.146 481.478 260.309 482.584C270.498 486.147 286.576 487.242 295.086 492.712C294.238 495.83 293.204 498.734 290.996 501.18C287.41 505.153 282.536 508.266 278.261 511.444Q272.179 516.037 266.272 520.854C259.205 526.618 252.897 533.161 246.055 539.164C241.949 538.924 237.769 538.101 233.662 537.666C228.057 537.073 222.408 536.898 216.778 536.713C199.247 536.307 181.974 538.058 164.545 539.639C173.592 530.542 183.25 522.335 192.667 513.65C201.761 505.263 215.443 491.7 225.46 485.199C231.124 481.524 237.846 478.953 243.983 476.132Z"/>
	<path fill="#DE4024" d="M367.34 594.583C368.438 594.461 369.307 594.267 370.324 594.82C370.63 595.697 370.654 595.324 370.351 596.202C368.784 600.738 362.426 608.28 359.252 612.233Q356.9 615.117 354.474 617.938Q352.048 620.759 349.548 623.516Q347.049 626.272 344.478 628.963Q341.908 631.653 339.268 634.275Q336.628 636.897 333.92 639.45Q331.212 642.002 328.439 644.482Q325.665 646.963 322.828 649.37Q319.99 651.777 317.091 654.109Q314.191 656.441 311.231 658.697Q308.272 660.952 305.254 663.129Q302.237 665.307 299.163 667.404Q296.09 669.502 292.963 671.518Q289.835 673.534 286.656 675.468Q283.477 677.402 280.249 679.252Q277.02 681.102 273.745 682.867Q270.469 684.632 267.148 686.311C266.905 686.437 266.66 686.562 266.409 686.67C265.592 687.024 264.579 687.65 263.74 687.339C265.569 683.581 268.842 680.067 271.09 676.473C278.449 664.703 285.897 653 292.802 640.955Q296.463 634.705 299.735 628.243C301.493 624.708 305.309 615.256 307.592 612.611C308.474 611.589 361.52 595.924 367.34 594.583Z"/>
	<path fill="#BE7532" d="M409.714 72.7857C412.031 73.6314 414.083 75.1764 415.973 76.7331C432.642 90.4598 443.102 111.512 445.244 132.876Q441.232 132.681 437.227 132.388C427.782 132.317 418.682 133.535 409.735 136.585C403.407 115.074 403.314 94.2711 409.714 72.7857Z"/>
	<path fill="#D39654" d="M387.668 372.754C399.369 380.637 408.5 383.816 422.31 386.333C415.504 398.458 397.353 411.687 386.39 420.407C384.36 407.265 380.323 397.349 372.765 386.359C373.84 382.675 385.353 377.823 387.668 372.754Z"/>
	<path fill="#EAE5CD" d="M266.018 537.881C265.382 557.015 273.63 578.11 282.738 594.45C277.997 598.251 264.032 595.531 258.486 597.405C251.942 583.771 249.093 568.111 248.513 553.121C252.152 548.401 261.148 541.744 266.018 537.881Z"/>
	<path fill="#CECBB4" d="M282.738 594.45C286.432 600.251 289.835 605.697 294.988 610.339C291.9 618.163 288.255 626.094 283.794 633.236C273.058 623.7 264.089 610.64 258.486 597.405C264.032 595.531 277.997 598.251 282.738 594.45Z"/>
	<path fill="#BE7532" d="M460.154 327.163C466.769 331.71 474.033 335.672 481.943 337.373C488.45 338.773 496.405 338.742 503.04 338.433C508.01 338.202 513.672 337.215 518.545 338.474C520.101 338.876 521.432 339.846 522.745 340.736C519.785 342.335 516.578 343.361 513.413 344.474Q505.928 347.61 498.587 351.068C488.156 343.428 478.405 340.919 465.502 341.993C463.492 342.16 460.124 342.898 458.276 341.992C457.871 339.672 459.764 330.17 460.154 327.163Z"/>
	<path fill="#2D261C" d="M681.585 180.231C683.12 180.063 684.629 180.018 686.171 180.084C695.135 180.467 707.162 183.432 713.484 190.27C720.182 186.687 729.914 185.063 737.465 185.636C741.949 185.977 746.746 187.306 749.688 190.937C751.89 193.655 752.595 197.072 752.154 200.499C750.78 211.182 740.642 220.557 732.617 226.734C733.407 237.752 731.291 247.946 725.091 257.196C716.858 269.479 704.363 275.641 690.189 278.412C688.884 278.555 687.567 278.682 686.254 278.719Q685.179 278.757 684.104 278.741Q683.028 278.726 681.955 278.656Q680.881 278.587 679.813 278.464Q678.744 278.342 677.683 278.166Q676.622 277.99 675.57 277.761Q674.519 277.532 673.481 277.251Q672.443 276.97 671.42 276.638Q670.397 276.305 669.392 275.922Q668.386 275.539 667.402 275.107Q666.417 274.674 665.455 274.192Q664.493 273.711 663.556 273.182Q662.62 272.653 661.711 272.079Q660.802 271.504 659.922 270.884Q659.043 270.265 658.196 269.602Q657.348 268.939 656.535 268.235Q655.722 267.531 654.945 266.787C647.452 268.147 640.386 270.397 632.666 269.977C628.119 269.73 622.866 268.495 619.823 264.854C617.893 262.544 617.093 259.386 617.401 256.421C618.192 248.816 624.591 241.12 630.189 236.326C632.31 234.511 634.669 233.046 636.802 231.234C636.815 219.275 639.312 208.035 646.978 198.541C655.734 187.697 667.831 181.621 681.585 180.231Z"/>
	<path fill="#BE7532" d="M650.87 244.65C649.204 241.14 647.854 237.362 647.196 233.525C645.688 224.74 648.077 215.265 653.202 208.018C659.101 199.677 668.822 193.085 678.982 191.466C690.109 189.692 699.648 193.467 708.565 199.872C715.446 206.059 719.024 211.736 721.21 220.695C713.991 225.702 706.816 230.978 699.236 235.426C686.081 243.147 671.836 249.237 657.556 254.526C654.819 251.477 652.569 248.401 650.87 244.65Z"/>
	<path fill="#B16228" d="M708.565 199.872C715.446 206.059 719.024 211.736 721.21 220.695C713.991 225.702 706.816 230.978 699.236 235.426C686.081 243.147 671.836 249.237 657.556 254.526C654.819 251.477 652.569 248.401 650.87 244.65C653.899 242.845 657.748 242.01 661.061 240.788C665.017 239.329 668.896 237.583 672.818 236.023C682.57 232.145 694.555 228.219 700.453 218.846C702.642 215.367 705.207 211.287 706.491 207.384C707.205 205.218 707.124 202.467 708.204 200.486C708.318 200.278 708.445 200.077 708.565 199.872Z"/>
	<path fill="#B16228" d="M721.242 234.006L721.459 234.046L721.763 234.499C721.527 236.247 721.091 237.922 720.598 239.613C717.569 250.013 711.77 258.169 702.106 263.371C691.957 268.833 681.445 267.882 670.82 264.631C669.309 264.136 667.911 263.384 666.49 262.679C680.054 258.68 693.939 251.185 705.931 243.763C711.073 240.581 715.974 236.976 721.242 234.006Z"/>
	<path fill="#FDB545" d="M733.535 197.037C735.824 197.092 738.076 196.805 739.858 198.487C740.195 199.204 740.394 199.677 740.367 200.491C740.222 204.863 733.427 211.119 730.458 214.137C728.685 208.578 725.752 203.698 722.907 198.635C726.408 197.63 729.913 197.28 733.535 197.037Z"/>
	<path fill="#FDB545" d="M639.063 243.631C639.98 244.123 642.787 251.16 643.585 252.614C644.586 254.439 645.745 256.117 646.964 257.8C643.391 258.797 639.818 259.305 636.126 259.59C634.546 259.54 631.985 259.553 630.646 258.655C629.861 258.129 629.339 257.419 629.25 256.457C628.871 252.362 636.31 246.094 639.063 243.631Z"/>
	<path fill="#2D261C" d="M673.409 654.588C670.451 644.149 667.02 634.618 657.043 628.999C651.332 625.783 644.842 624.466 638.471 623.254C636.221 622.826 633.318 622.649 631.292 621.623C629.72 620.828 628.389 619.432 627.9 617.716C627.515 616.362 627.747 615.001 628.46 613.8C629.772 611.591 632.34 611.137 634.673 610.628C647.272 607.879 659.971 605.716 667.565 594.065C672.769 586.081 673.787 576.134 675.263 566.937C675.694 564.252 676.043 560.829 677.238 558.387C677.791 557.256 678.786 556.504 679.981 556.149C681.048 555.831 682.16 556.005 683.128 556.527C685.149 557.615 686.051 560.656 686.462 562.735C689.209 576.647 689.599 593.275 702.436 602.162C708.443 606.322 716.544 607.937 723.548 609.61C726.043 610.206 728.733 610.664 731.067 611.755C732.778 612.555 734.816 613.899 735.209 615.911C735.421 617.001 735.3 617.743 734.654 618.652C733.098 620.844 729.559 621.937 727.061 622.56C721.154 624.033 715.019 625.054 709.346 627.316C692.125 634.18 689.834 652.551 686.961 668.674C686.662 670.818 686.328 673.391 685.402 675.366C684.768 676.716 683.832 677.831 682.339 678.225C681.416 678.469 680.493 678.248 679.723 677.701C676.11 675.134 674.635 659.446 673.409 654.588Z"/>
	<path fill="#FDB545" d="M681.354 586.606C682.603 590.408 683.236 594.018 685.182 597.613C691.021 608.399 700.948 612.98 712.175 616.35C707.931 617.661 703.78 619.164 699.922 621.396C689.652 627.337 684.453 636.955 681.484 648.14C679.795 646.19 679.116 641.087 677.918 638.555C672.393 626.875 663.184 620.456 651.393 616.104C655.217 614.726 659.032 613.35 662.634 611.446C673.283 605.818 677.896 597.815 681.354 586.606Z"/>
	<path fill="#2D261C" d="M69.4064 127.388C69.9845 127.35 70.5932 127.304 71.1692 127.387C76.7193 128.186 77.5093 145.31 78.5209 149.847C79.5445 154.438 81.0537 159.654 83.5676 163.669C92.3355 177.673 112.872 175.067 118.347 182.095C119.333 183.361 119.754 184.675 119.611 186.273C116.791 190.277 106.18 191.195 101.694 192.517C98.1945 193.548 94.8306 194.884 91.6656 196.708C78.3677 204.373 78.9448 220.734 75.3282 233.685C74.546 236.486 73.7587 238.322 71.1709 239.757C69.448 239.426 68.148 238.7 67.2501 237.173C65.5374 234.26 65.0898 230.411 64.4502 227.148C62.9323 219.404 61.5368 211.839 57.3301 205.008C51.7352 195.924 42.4416 193.082 32.593 190.749C29.3116 189.972 25.6747 189.293 22.9372 187.189C21.8134 186.326 20.7188 185.058 20.6845 183.56C20.5563 177.953 36.5409 176.065 40.7106 174.634C45.1901 173.097 49.7519 170.904 53.3276 167.748C60.9671 161.006 63.0818 150.012 64.5725 140.442C65.0897 137.122 65.4174 133.325 66.8866 130.268C67.4711 129.053 68.3954 128.247 69.4064 127.388Z"/>
	<path fill="#FDB545" d="M70.5309 157.337C71.9426 158.786 72.4689 163.015 73.3869 165.027C78.2749 175.741 87.8352 180.069 98.2165 183.973C87.438 187.781 78.6404 192.765 73.3435 203.422C71.9507 206.224 71.3717 209.499 69.8901 212.214C69.8162 212.349 69.7294 212.478 69.6491 212.609C68.7145 209.399 67.7533 206.207 66.3178 203.178C61.0686 192.101 52.149 187.566 41.1414 183.647C44.321 182.95 47.4451 181.717 50.367 180.299C60.5824 175.338 66.8253 168.035 70.5309 157.337Z"/>
	<path fill="#2D261C" d="M556.577 640.971Q556.997 640.964 557.416 640.973C557.599 640.978 558.224 641.003 558.411 641.042C560.113 641.398 561.209 643.046 561.84 644.553C562.977 647.269 563.484 650.269 564.877 652.878C567.381 657.566 573.337 657.792 576.823 661.265C577.222 661.662 577.698 662.203 577.663 662.793C577.443 666.605 569.417 668.228 566.978 670.72C563.042 674.743 563.263 681.177 559.506 684.941C559.332 684.959 559.159 684.984 558.985 684.995C557.853 685.068 556.684 685.291 555.942 684.256C553.571 680.951 553.434 675.921 550.831 672.763C548.002 669.329 543.131 667.967 539.986 664.912C539.095 664.047 538.618 663.305 538.628 662.021C540.183 658.456 545.452 658.194 548.105 655.66C552.367 651.587 552.18 644.42 556.577 640.971Z"/>
	<path fill="#2D261C" d="M149.541 247.128C150.196 247.281 149.918 247.178 150.58 247.511C153.037 248.749 154.159 255.859 156.013 258.352C158.103 261.165 164.157 261.832 165.236 265.01C165.178 265.181 165.135 265.358 165.062 265.523C163.85 268.293 159.024 269.087 156.955 271.287C153.722 274.725 154.314 280.548 150.472 283.515Q150.001 283.421 149.535 283.308C145.455 282.294 145.585 275.392 143.186 272.338C141.086 269.665 136.272 268.996 134.398 266.3C134.072 265.831 133.764 265.381 133.95 264.804C134.898 261.862 140.711 260.913 142.699 258.555C145.828 254.845 145.089 249.836 149.541 247.128Z"/>
	<path fill="#2D261C" d="M604.684 152.527C610.139 152.974 608.508 159.05 611.376 162.393C613.57 164.951 617.979 165.598 620.415 168.062C620.488 172.05 613.603 173.714 611.493 176.671C609.126 179.989 609.364 184.332 606.706 187.521C601.07 187.066 602.205 179.77 599.125 176.15C597.934 174.751 595.669 173.885 594.063 172.955C592.827 172.239 591.179 171.316 590.999 169.716C590.696 167.021 596.595 165.25 598.473 163.432C601.629 160.379 602.044 155.878 604.684 152.527Z"/>
</svg>
